<?xml version="1.0" standalone="no"?>
<!DOCTYPE svg PUBLIC "-//W3C//DTD SVG 20010904//EN"
 "http://www.w3.org/TR/2001/REC-SVG-20010904/DTD/svg10.dtd">
<svg version="1.0" xmlns="http://www.w3.org/2000/svg"
 width="1620.000000pt" height="1620.000000pt" viewBox="0 0 1620.000000 1620.000000"
 preserveAspectRatio="xMidYMid meet">

<g transform="translate(0.000000,1620.000000) scale(0.100000,-0.100000)"
fill="#000000" stroke="none">
<path d="M0 8100 l0 -8100 8100 0 8100 0 0 8100 0 8100 -8100 0 -8100 0 0
-8100z m13498 4268 c8 -8 12 -49 12 -120 l0 -107 113 -3 c104 -3 112 -4 112
-23 0 -19 -8 -20 -112 -23 l-113 -3 0 -99 c0 -112 -4 -130 -31 -130 -18 0 -19
9 -19 115 l0 114 -117 3 c-110 3 -118 4 -118 23 0 19 8 20 118 23 l117 3 0
113 c0 126 7 145 38 114z m-1253 -2463 c211 -58 357 -208 400 -410 11 -52 15
-140 15 -337 l0 -268 -255 0 -255 0 0 228 c0 125 -5 243 -10 263 -14 50 -41
71 -98 77 -67 6 -106 -27 -122 -101 -7 -37 -10 -277 -8 -763 3 -652 4 -712 20
-741 23 -42 55 -63 95 -63 46 0 77 17 99 53 17 29 19 57 22 320 l3 287 260 0
261 0 -5 -322 c-5 -353 -10 -394 -68 -515 -39 -82 -123 -172 -196 -210 -105
-56 -184 -75 -333 -80 -230 -8 -357 34 -485 162 -81 80 -125 157 -157 272 -22
76 -22 94 -26 763 -4 718 1 831 39 976 60 229 202 373 414 419 90 19 304 14
390 -10z m-5425 -22 c154 -31 314 -150 373 -275 55 -116 60 -152 65 -455 l4
-283 -255 0 -256 0 -3 243 c-3 208 -5 247 -21 274 -34 62 -145 65 -185 5 -16
-24 -17 -87 -20 -757 -2 -501 0 -742 8 -767 14 -49 52 -78 102 -78 50 0 74 13
95 53 16 28 19 70 23 312 l5 280 253 3 252 2 0 -307 c0 -346 -7 -399 -65 -520
-65 -139 -183 -230 -351 -273 -109 -28 -301 -28 -404 1 -203 56 -346 201 -407
414 -16 54 -18 133 -21 775 -2 613 -1 730 13 823 50 342 214 515 519 547 87 9
177 4 276 -17z m3270 -218 l0 -245 -150 0 -150 0 0 -1040 0 -1040 -260 0 -260
0 0 1040 0 1040 -150 0 -150 0 0 245 0 245 560 0 560 0 0 -245z m1150 -5 l0
-250 -250 0 -250 0 0 -250 0 -250 240 0 240 0 0 -240 0 -240 -240 0 -240 0 0
-295 0 -295 265 0 265 0 0 -250 0 -250 -530 0 -530 0 0 1285 0 1285 515 0 515
0 0 -250z m2090 -210 l0 -460 120 0 120 0 0 460 0 460 255 0 255 0 0 -1285 0
-1285 -255 0 -255 0 0 585 0 585 -120 0 -120 0 0 -585 0 -585 -255 0 -255 0 0
1285 0 1285 255 0 255 0 0 -460z m-10270 185 l0 -245 -250 0 -250 0 0 -245 0
-245 238 -2 237 -3 3 -237 2 -238 -240 0 -240 0 0 -290 0 -290 265 0 265 0 0
-250 0 -250 -525 0 -525 0 0 1270 0 1270 510 0 510 0 0 -245z m1077 218 c155
-52 247 -146 303 -309 38 -108 42 -211 38 -974 -4 -726 -4 -736 -26 -815 -48
-171 -132 -294 -238 -348 -118 -60 -124 -61 -571 -65 l-413 -3 0 1271 0 1271
423 -3 c397 -4 426 -5 484 -25z m985 -955 c4 -1049 3 -1034 53 -1084 19 -19
35 -24 72 -24 57 1 77 14 100 66 17 36 18 109 21 1032 l3 992 250 0 250 0 -4
-1007 c-4 -1099 -3 -1073 -63 -1222 -87 -218 -272 -331 -545 -331 -335 0 -517
129 -602 427 -22 78 -22 81 -25 1106 l-3 1027 245 0 245 0 3 -982z m3322 940
c8 -58 236 -2455 236 -2479 0 -18 -11 -19 -240 -19 -222 0 -240 1 -241 18 0 9
-8 100 -17 202 l-17 185 -152 3 -152 3 -5 -43 c-5 -43 -26 -322 -26 -352 0
-14 -27 -16 -249 -16 l-250 0 5 33 c2 17 56 570 119 1227 63 657 117 1214 120
1238 l6 42 429 0 429 0 5 -42z m-3152 -3538 c49 -14 93 -52 121 -104 31 -58
31 -191 0 -258 -41 -89 -144 -135 -243 -109 -103 28 -154 105 -154 236 -1 64
4 90 23 128 46 94 146 136 253 107z m3053 -9 c62 -28 68 -41 38 -79 -24 -32
-26 -32 -50 -16 -57 36 -132 12 -159 -51 -18 -44 -18 -128 0 -163 33 -64 89
-84 151 -52 l39 20 28 -27 c27 -26 27 -27 10 -46 -24 -28 -91 -57 -131 -57
-91 0 -184 65 -209 146 -30 101 -6 216 57 278 65 64 151 82 226 47z m1325 -12
c22 -13 40 -27 40 -33 0 -6 -12 -24 -25 -39 -23 -26 -26 -27 -49 -12 -35 24
-105 24 -122 1 -21 -30 -1 -51 77 -82 86 -34 125 -68 134 -117 26 -139 -142
-223 -292 -145 -26 13 -48 29 -48 34 0 5 12 24 26 42 l26 33 37 -22 c45 -26
109 -30 132 -7 29 28 9 53 -72 88 -97 43 -134 83 -134 146 0 120 147 182 270
113z m393 20 c90 -25 147 -115 147 -232 0 -84 -18 -135 -65 -183 -104 -108
-281 -72 -340 70 -10 23 -16 67 -16 114 0 64 4 85 28 131 46 90 143 129 246
100z m483 -13 c28 -13 54 -28 57 -32 3 -5 -8 -24 -24 -43 -23 -29 -31 -32 -43
-22 -24 20 -86 31 -113 20 -19 -7 -24 -15 -21 -36 3 -24 14 -32 88 -63 95 -40
130 -77 130 -137 0 -106 -101 -172 -224 -146 -48 10 -126 49 -126 63 1 3 14
20 30 37 l29 33 33 -19 c51 -30 95 -35 123 -17 27 18 33 48 13 63 -7 5 -43 22
-80 38 -82 34 -118 69 -125 124 -17 124 121 198 253 137z m556 14 c49 -14 93
-52 121 -104 31 -58 31 -191 0 -258 -41 -89 -144 -135 -243 -109 -103 28 -154
105 -154 236 -1 64 4 90 23 128 46 94 146 136 253 107z m2424 -14 c28 -13 54
-28 57 -32 3 -5 -8 -24 -24 -43 -23 -29 -31 -32 -43 -22 -24 20 -86 31 -113
20 -19 -7 -24 -15 -21 -36 3 -24 14 -32 88 -63 95 -40 130 -77 130 -137 0
-107 -101 -172 -227 -145 -49 10 -123 48 -123 62 0 3 14 20 30 37 l29 33 33
-19 c51 -30 95 -35 123 -17 27 18 33 48 13 63 -7 5 -43 22 -80 38 -88 36 -120
70 -125 132 -5 61 19 102 78 131 57 28 112 28 175 -2z m-10616 -11 c48 -28 72
-78 67 -138 -2 -27 -13 -61 -24 -75 -29 -41 -98 -72 -160 -72 l-53 0 0 -80 0
-80 -55 0 -55 0 0 236 0 236 123 -3 c100 -3 128 -8 157 -24z m250 -165 l0
-190 95 0 95 0 0 -45 0 -45 -145 0 -145 0 0 235 0 235 50 0 50 0 0 -190z m494
173 c3 -10 35 -112 71 -228 36 -115 65 -213 65 -217 0 -4 -25 -8 -55 -8 l-54
0 -11 43 c-6 23 -13 48 -15 55 -3 8 -27 12 -74 12 l-70 0 -11 -42 c-6 -24 -13
-49 -15 -55 -3 -9 -24 -13 -60 -13 -31 0 -54 3 -52 8 3 4 35 104 71 222 37
118 69 221 71 228 3 8 26 12 69 12 53 0 66 -3 70 -17z m516 -28 l0 -45 -65 0
-65 0 0 -190 0 -190 -50 0 -50 0 0 190 0 190 -65 0 -65 0 0 45 0 45 180 0 180
0 0 -45z m311 -20 c10 -33 43 -138 73 -232 l54 -173 -58 0 -59 0 -12 55 -12
55 -73 0 -73 0 -12 -55 -12 -55 -54 0 c-29 0 -53 4 -53 8 0 4 29 102 65 217
36 116 68 218 71 228 5 15 15 17 71 15 l65 -3 19 -60z m469 20 l0 -45 -96 0
-95 0 3 -52 3 -53 83 -3 82 -3 0 -44 0 -45 -85 0 -85 0 0 -90 0 -90 -50 0 -50
0 0 235 0 235 145 0 145 0 0 -45z m833 31 c50 -18 74 -41 88 -83 18 -56 4
-118 -37 -157 l-35 -34 47 -84 c25 -45 49 -86 51 -90 2 -5 -23 -8 -55 -8 l-60
0 -45 83 c-40 73 -48 82 -76 85 l-31 3 0 -85 0 -86 -50 0 -50 0 0 235 0 235
108 0 c64 -1 122 -6 145 -14z m314 -18 c27 -81 92 -263 93 -258 0 3 22 68 48
145 l49 140 61 3 62 3 0 -236 0 -235 -51 0 -51 0 4 159 4 160 -44 -122 c-24
-67 -46 -130 -49 -139 -4 -12 -16 -18 -37 -18 -31 0 -31 0 -81 138 l-50 138 3
-158 4 -158 -46 0 -46 0 0 235 0 235 58 0 c57 0 59 -1 69 -32z m710 -203 c40
-126 73 -231 73 -232 0 -2 -26 -3 -58 -3 l-59 0 -12 55 -12 55 -73 0 -73 0
-12 -55 -12 -55 -56 0 c-40 0 -54 3 -51 13 2 6 35 112 73 235 l69 223 65 -3
65 -3 73 -230z m535 203 c62 -37 98 -107 98 -192 0 -89 -16 -135 -64 -182 -51
-51 -93 -64 -213 -64 l-93 0 0 236 0 236 113 -3 c100 -4 117 -7 159 -31z m478
-13 l0 -45 -90 0 -90 0 0 -45 0 -44 78 -3 77 -3 3 -42 3 -43 -80 0 -81 0 0
-55 0 -55 95 0 95 0 0 -45 0 -45 -150 0 -150 0 0 235 0 235 145 0 145 0 0 -45z
m772 -125 c3 -160 4 -171 25 -192 28 -27 86 -30 111 -5 14 15 18 44 22 190 l5
172 53 3 52 3 0 -145 c0 -166 -11 -234 -46 -276 -35 -41 -102 -64 -165 -57
-72 9 -110 34 -138 91 -23 45 -25 64 -29 218 l-5 168 56 0 55 0 4 -170z m631
156 c50 -18 74 -41 88 -83 18 -56 4 -118 -37 -157 l-35 -34 47 -84 c25 -45 49
-86 51 -90 2 -5 -23 -8 -55 -8 l-60 0 -45 83 c-40 73 -47 82 -73 82 l-29 0 -3
-82 -3 -83 -49 0 -50 0 0 235 0 235 108 0 c64 -1 122 -6 145 -14z m2308 -146
l79 -155 -7 158 -6 157 56 0 57 0 0 -235 0 -235 -58 0 -57 0 -81 159 -81 160
5 -160 5 -159 -52 0 -51 0 0 235 0 236 56 -3 56 -3 79 -155z m389 -30 l0 -190
95 0 95 0 0 -45 0 -45 -145 0 -145 0 0 235 0 235 50 0 50 0 0 -190z m380 -45
l0 -235 -55 0 -55 0 0 235 0 235 55 0 55 0 0 -235z m301 75 l79 -155 -7 158
-6 157 56 0 57 0 0 -235 0 -235 -58 0 -57 0 -81 159 -81 160 5 -160 5 -159
-52 0 -51 0 0 235 0 236 56 -3 56 -3 79 -155z m579 115 l0 -45 -95 0 -95 0 0
-45 0 -45 80 0 80 0 0 -45 0 -45 -80 0 -80 0 0 -55 0 -55 100 0 100 0 0 -45 0
-45 -155 0 -155 0 0 235 0 235 150 0 150 0 0 -45z m2030 -1660 l0 -115 61 0
c57 0 60 -1 57 -22 -3 -20 -10 -23 -60 -26 l-58 -3 0 -115 c0 -114 0 -115 -22
-112 -22 3 -23 7 -26 116 l-3 112 -114 0 -115 0 0 25 0 25 115 0 115 0 0 108
c0 60 3 112 7 115 3 4 15 7 25 7 16 0 18 -10 18 -115z m-11742 -537 c8 -8 12
-49 12 -120 l0 -107 113 -3 c104 -3 112 -4 112 -23 0 -19 -8 -20 -112 -23
l-113 -3 0 -99 c0 -112 -4 -130 -31 -130 -18 0 -19 9 -19 115 l0 114 -117 3
c-110 3 -118 4 -118 23 0 19 8 20 115 25 l115 5 3 105 c3 133 9 149 40 118z"/>
<path d="M3740 8615 l0 -828 74 5 c87 6 121 24 142 74 20 48 16 1476 -4 1512
-21 36 -53 50 -134 57 l-78 7 0 -827z"/>
<path d="M7990 9437 c0 -8 -20 -290 -45 -627 -25 -337 -45 -621 -45 -631 0
-17 10 -19 113 -19 l112 0 -55 642 c-40 461 -59 643 -68 646 -6 2 -12 -3 -12
-11z"/>
<path d="M5203 6212 c-34 -5 -70 -55 -78 -107 -9 -61 10 -137 41 -166 52 -49
132 -17 154 60 34 124 -23 228 -117 213z"/>
<path d="M9970 6211 c-45 -12 -70 -65 -70 -145 0 -116 52 -173 128 -144 47 18
72 67 72 141 0 79 -20 124 -64 142 -20 8 -37 15 -38 14 -2 -1 -14 -4 -28 -8z"/>
<path d="M11013 6212 c-34 -5 -70 -55 -78 -107 -9 -61 10 -137 41 -166 52 -49
132 -17 154 60 34 124 -23 228 -117 213z"/>
<path d="M2740 6139 l0 -72 47 7 c58 8 83 29 83 72 0 46 -22 64 -81 64 l-49 0
0 -71z"/>
<path d="M3571 6170 c-40 -151 -41 -140 14 -140 25 0 45 1 45 3 -1 1 -11 43
-24 92 l-23 90 -12 -45z"/>
<path d="M4371 6126 c-11 -47 -21 -88 -21 -91 0 -3 20 -5 45 -5 25 0 45 2 45
5 0 8 -42 170 -45 173 -1 1 -12 -36 -24 -82z"/>
<path d="M5630 6151 c0 -33 5 -63 11 -66 16 -11 97 5 114 21 8 9 15 31 15 49
0 42 -20 55 -89 55 l-51 0 0 -59z"/>
<path d="M6645 6132 c-10 -42 -20 -83 -22 -89 -4 -9 8 -13 41 -13 25 0 46 4
46 8 0 12 -39 165 -43 169 -2 1 -12 -32 -22 -75z"/>
<path d="M7180 6065 l0 -145 33 0 c72 0 117 55 117 143 0 93 -41 147 -112 147
l-38 0 0 -145z"/>
<path d="M9070 6151 c0 -33 5 -63 11 -66 16 -11 97 5 114 21 8 9 15 31 15 49
0 42 -20 55 -89 55 l-51 0 0 -59z"/>
</g>
</svg>
